<svg width="1977" height="297" viewBox="0 0 1977 297" fill="none" xmlns="http://www.w3.org/2000/svg">
<path d="M408 3.05176e-05L287.467 80.1986L167 9.44868e-06L287.467 195.5L408 3.05176e-05Z" fill="#29262D"/>
<path d="M572 297L411 6.99999L468.505 261.067L572 297Z" fill="#29262D"/>
<path d="M-3.83069e-05 297L161 7.00001L103.495 261.067L-3.83069e-05 297Z" fill="#29262D"/>
<path d="M845.66 251V239.105C851.74 239.105 856.828 238.841 860.925 238.312C865.154 237.652 868.524 236.462 871.035 234.744C873.546 233.026 875.33 230.581 876.388 227.409C877.577 224.237 878.172 220.074 878.172 214.92V84.6748L804.426 251H794.91L721.759 79.5205V214.92C721.759 220.471 722.354 224.898 723.543 228.202C724.865 231.374 726.715 233.753 729.094 235.339C731.605 236.925 734.711 237.982 738.411 238.511C742.112 238.907 746.407 239.105 751.297 239.105V251H674.181V239.105C678.938 239.105 683.102 238.907 686.67 238.511C690.238 237.982 693.212 236.925 695.591 235.339C697.97 233.753 699.754 231.374 700.943 228.202C702.265 224.898 702.926 220.471 702.926 214.92V86.459C702.926 81.3047 702.794 77.0755 702.529 73.7715C702.265 70.3353 701.34 67.626 699.754 65.6436C698.168 63.6611 695.657 62.2734 692.221 61.4805C688.917 60.6875 684.225 60.291 678.146 60.291V48.3965H759.821L814.14 181.813L874.802 48.3965H954.099V60.291C948.019 60.291 943.063 60.6875 939.23 61.4805C935.53 62.2734 932.622 63.6611 930.508 65.6436C928.393 67.626 926.939 70.3353 926.146 73.7715C925.486 77.0755 925.155 81.3047 925.155 86.459V214.92C925.155 220.074 925.486 224.237 926.146 227.409C926.939 230.581 928.393 233.026 930.508 234.744C932.622 236.462 935.53 237.652 939.23 238.312C943.063 238.841 948.019 239.105 954.099 239.105V251H845.66ZM1106.35 179.831C1106.35 190.007 1104.76 199.655 1101.59 208.774C1098.55 217.894 1094.06 225.955 1088.11 232.96C1082.3 239.832 1075.16 245.317 1066.7 249.414C1058.37 253.511 1048.92 255.56 1038.35 255.56C1027.38 255.56 1017.54 253.577 1008.81 249.612C1000.09 245.647 992.69 240.361 986.61 233.753C980.663 227.013 976.037 219.347 972.733 210.757C969.562 202.166 967.976 193.245 967.976 183.994C967.976 174.479 969.562 165.293 972.733 156.438C975.905 147.451 980.465 139.522 986.412 132.649C992.359 125.777 999.562 120.292 1008.02 116.195C1016.48 112.098 1026.06 110.05 1036.77 110.05C1047.07 110.05 1056.52 111.9 1065.11 115.601C1073.7 119.169 1081.04 124.125 1087.12 130.469C1093.2 136.812 1097.89 144.214 1101.19 152.672C1104.63 161.13 1106.35 170.183 1106.35 179.831ZM1063.13 191.726C1063.13 183.664 1062.4 175.668 1060.95 167.738C1059.63 159.676 1057.58 152.474 1054.81 146.13C1052.03 139.786 1048.59 134.698 1044.5 130.865C1040.53 126.9 1035.91 124.918 1030.62 124.918C1028.37 124.918 1026.06 125.711 1023.68 127.297C1021.43 128.751 1019.39 131.262 1017.54 134.83C1015.82 138.398 1014.36 143.156 1013.17 149.104C1012.12 155.051 1011.59 162.518 1011.59 171.505C1011.59 180.888 1012.51 189.743 1014.36 198.069C1016.35 206.396 1018.92 213.73 1022.1 220.074C1025.27 226.286 1028.84 231.242 1032.8 234.942C1036.9 238.643 1041.06 240.493 1045.29 240.493C1051.11 240.493 1055.53 236.793 1058.57 229.392C1061.61 221.858 1063.13 209.303 1063.13 191.726ZM1270.1 126.107C1263.75 126.372 1258.93 128.09 1255.62 131.262C1252.45 134.301 1249.68 138.597 1247.3 144.147L1199.52 255.56H1187.63L1139.65 145.733C1137.94 141.769 1136.28 138.663 1134.7 136.416C1133.11 134.037 1131.39 132.187 1129.54 130.865C1127.69 129.544 1125.51 128.552 1123 127.892C1120.62 127.231 1117.78 126.636 1114.48 126.107V114.213H1197.34V126.107C1191.66 126.107 1187.63 127.033 1185.25 128.883C1183 130.601 1181.88 133.244 1181.88 136.812C1181.88 138.531 1182.14 140.513 1182.67 142.76C1183.2 144.874 1183.99 147.121 1185.05 149.5L1206.66 199.061L1229.26 145.733C1230.84 142.165 1231.64 139.059 1231.64 136.416C1231.64 133.112 1230.32 130.601 1227.67 128.883C1225.16 127.033 1221.06 126.107 1215.38 126.107V114.213H1270.1V126.107ZM1347.81 59.8945C1347.81 63.3307 1347.15 66.5687 1345.83 69.6084C1344.64 72.6481 1342.92 75.2913 1340.67 77.5381C1338.56 79.7848 1336.05 81.569 1333.14 82.8906C1330.23 84.2122 1327.06 84.873 1323.62 84.873C1320.19 84.873 1316.95 84.2783 1313.91 83.0889C1311 81.7673 1308.42 80.0492 1306.18 77.9346C1303.93 75.6878 1302.15 73.0446 1300.82 70.0049C1299.5 66.833 1298.84 63.4629 1298.84 59.8945C1298.84 56.4583 1299.5 53.2865 1300.82 50.3789C1302.15 47.3392 1303.93 44.762 1306.18 42.6475C1308.42 40.5329 1311 38.8809 1313.91 37.6914C1316.95 36.502 1320.19 35.9072 1323.62 35.9072C1326.79 35.9072 1329.83 36.568 1332.74 37.8896C1335.78 39.0791 1338.36 40.7972 1340.47 43.0439C1342.72 45.1585 1344.5 47.6696 1345.83 50.5771C1347.15 53.4847 1347.81 56.5905 1347.81 59.8945ZM1285.96 251V239.105C1289.52 239.105 1292.37 238.841 1294.48 238.312C1296.73 237.652 1298.45 236.594 1299.63 235.141C1300.82 233.555 1301.62 231.374 1302.01 228.599C1302.54 225.823 1302.81 222.255 1302.81 217.894V155.844C1302.81 147.914 1302.21 142.562 1301.02 139.786C1299.83 137.011 1297.65 135.623 1294.48 135.623C1292.76 135.623 1290.65 135.821 1288.14 136.218C1285.63 136.614 1283.44 137.143 1281.59 137.804L1278.03 126.702L1333.53 110.05H1345.43V218.092C1345.43 222.453 1345.69 226.021 1346.22 228.797C1346.75 231.44 1347.61 233.555 1348.8 235.141C1350.12 236.727 1351.84 237.784 1353.95 238.312C1356.07 238.841 1358.71 239.105 1361.88 239.105V251H1285.96ZM1497.08 200.448C1495.63 207.321 1493.38 214.061 1490.34 220.669C1487.44 227.277 1483.6 233.158 1478.85 238.312C1474.09 243.467 1468.4 247.63 1461.8 250.802C1455.19 253.974 1447.52 255.56 1438.8 255.56C1429.02 255.56 1420.3 253.841 1412.63 250.405C1404.97 246.837 1398.49 241.815 1393.21 235.339C1387.92 228.863 1383.89 221.198 1381.11 212.343C1378.47 203.356 1377.15 193.378 1377.15 182.408C1377.15 171.307 1379.06 161.262 1382.9 152.275C1386.86 143.288 1391.95 135.689 1398.16 129.478C1404.5 123.134 1411.64 118.31 1419.57 115.006C1427.5 111.57 1435.56 109.852 1443.76 109.852C1450.89 109.852 1457.7 110.975 1464.18 113.222C1470.65 115.336 1476.33 118.839 1481.22 123.729C1486.11 128.486 1489.95 134.698 1492.72 142.363C1495.63 150.029 1497.08 159.28 1497.08 170.117H1411.44C1411.44 176.461 1412.43 182.871 1414.42 189.347C1416.4 195.69 1419.31 201.439 1423.14 206.594C1427.1 211.616 1431.86 215.713 1437.41 218.885C1442.96 222.057 1449.31 223.643 1456.44 223.643C1463.05 223.643 1469 221.66 1474.29 217.695C1479.57 213.73 1484.26 206.726 1488.36 196.682L1497.08 200.448ZM1457.04 157.231C1457.04 154.192 1456.64 150.822 1455.85 147.121C1455.06 143.288 1453.67 139.72 1451.69 136.416C1449.84 133.112 1447.33 130.337 1444.15 128.09C1441.11 125.843 1437.28 124.72 1432.66 124.72C1430.01 124.72 1427.37 125.513 1424.73 127.099C1422.21 128.552 1419.9 130.733 1417.79 133.641C1415.8 136.416 1414.22 139.852 1413.03 143.949C1411.84 147.914 1411.25 152.341 1411.25 157.231H1457.04ZM1650.33 64.8506C1650.33 67.0973 1649.86 69.278 1648.94 71.3926C1648.01 73.375 1646.76 75.2253 1645.17 76.9434C1643.58 78.6615 1641.67 80.0492 1639.42 81.1064C1637.18 82.0316 1634.66 82.4941 1631.89 82.4941C1628.32 82.4941 1625.28 81.8333 1622.77 80.5117C1620.26 79.0579 1618.08 77.3398 1616.23 75.3574C1614.38 73.375 1612.66 71.1943 1611.07 68.8154C1609.62 66.3044 1608.1 64.0576 1606.51 62.0752C1604.93 60.0928 1603.14 58.4408 1601.16 57.1191C1599.31 55.6654 1597 54.9385 1594.22 54.9385C1591.32 54.9385 1589.07 56.0618 1587.48 58.3086C1586.03 60.5553 1584.91 63.4629 1584.11 67.0312C1583.45 70.5996 1583.06 74.6305 1582.92 79.124C1582.79 83.4854 1582.72 87.9128 1582.72 92.4062V114.213H1617.22V131.063H1582.72V217.894C1582.72 222.519 1583.39 226.22 1584.71 228.995C1586.03 231.771 1587.75 233.885 1589.86 235.339C1592.11 236.793 1594.69 237.784 1597.59 238.312C1600.5 238.841 1603.54 239.105 1606.71 239.105V251H1518.69V239.105C1525.83 239.105 1531.18 237.652 1534.75 234.744C1538.32 231.837 1540.1 226.22 1540.1 217.894V131.063H1512.75V114.213H1540.1V113.222C1540.1 109.389 1540.63 104.896 1541.69 99.7412C1542.75 94.4548 1544.33 89.0361 1546.45 83.4854C1548.69 77.9346 1551.6 72.516 1555.17 67.2295C1558.74 61.8109 1562.97 56.987 1567.86 52.7578C1572.88 48.5286 1578.69 45.1585 1585.3 42.6475C1591.91 40.0042 1599.38 38.6826 1607.7 38.6826C1614.84 38.6826 1621.05 39.4095 1626.34 40.8633C1631.62 42.3171 1636.05 44.2995 1639.62 46.8105C1643.19 49.1895 1645.83 51.9648 1647.55 55.1367C1649.4 58.3086 1650.33 61.5465 1650.33 64.8506ZM1634.07 251V239.105C1637.64 239.105 1640.55 238.775 1642.79 238.114C1645.04 237.453 1646.76 236.33 1647.95 234.744C1649.14 233.158 1649.93 231.044 1650.33 228.4C1650.85 225.625 1651.12 222.123 1651.12 217.894V84.4766C1651.12 76.679 1650.33 71.3926 1648.74 68.6172C1647.29 65.7096 1645.1 64.2559 1642.2 64.2559C1640.35 64.2559 1638.5 64.4541 1636.65 64.8506C1634.93 65.2471 1633.21 65.7757 1631.49 66.4365L1626.93 56.1279L1681.85 38.6826H1693.74V217.894C1693.74 222.519 1694 226.22 1694.53 228.995C1695.06 231.771 1695.92 233.885 1697.11 235.339C1698.43 236.793 1700.08 237.784 1702.07 238.312C1704.18 238.841 1706.82 239.105 1710 239.105V251H1634.07ZM1798.21 59.8945C1798.21 63.3307 1797.55 66.5687 1796.23 69.6084C1795.04 72.6481 1793.32 75.2913 1791.08 77.5381C1788.96 79.7848 1786.45 81.569 1783.54 82.8906C1780.64 84.2122 1777.46 84.873 1774.03 84.873C1770.59 84.873 1767.35 84.2783 1764.31 83.0889C1761.41 81.7673 1758.83 80.0492 1756.58 77.9346C1754.34 75.6878 1752.55 73.0446 1751.23 70.0049C1749.91 66.833 1749.25 63.4629 1749.25 59.8945C1749.25 56.4583 1749.91 53.2865 1751.23 50.3789C1752.55 47.3392 1754.34 44.762 1756.58 42.6475C1758.83 40.5329 1761.41 38.8809 1764.31 37.6914C1767.35 36.502 1770.59 35.9072 1774.03 35.9072C1777.2 35.9072 1780.24 36.568 1783.15 37.8896C1786.19 39.0791 1788.76 40.7972 1790.88 43.0439C1793.13 45.1585 1794.91 47.6696 1796.23 50.5771C1797.55 53.4847 1798.21 56.5905 1798.21 59.8945ZM1736.36 251V239.105C1739.93 239.105 1742.77 238.841 1744.89 238.312C1747.13 237.652 1748.85 236.594 1750.04 235.141C1751.23 233.555 1752.02 231.374 1752.42 228.599C1752.95 225.823 1753.21 222.255 1753.21 217.894V155.844C1753.21 147.914 1752.62 142.562 1751.43 139.786C1750.24 137.011 1748.06 135.623 1744.89 135.623C1743.17 135.623 1741.05 135.821 1738.54 136.218C1736.03 136.614 1733.85 137.143 1732 137.804L1728.43 126.702L1783.94 110.05H1795.83V218.092C1795.83 222.453 1796.1 226.021 1796.63 228.797C1797.16 231.44 1798.02 233.555 1799.21 235.141C1800.53 236.727 1802.24 237.784 1804.36 238.312C1806.47 238.841 1809.12 239.105 1812.29 239.105V251H1736.36ZM1891.19 132.649C1891.19 133.31 1891.92 134.764 1893.37 137.011C1894.96 139.257 1896.67 141.702 1898.52 144.346C1900.77 147.385 1903.28 150.689 1906.06 154.258C1906.72 153.465 1907.91 152.011 1909.63 149.896C1911.34 147.65 1913.13 145.271 1914.98 142.76C1916.83 140.249 1918.48 137.936 1919.93 135.821C1921.39 133.707 1922.12 132.253 1922.12 131.46C1922.12 129.874 1921.19 128.618 1919.34 127.693C1917.62 126.636 1915.77 126.107 1913.79 126.107V114.213H1964.14V126.107C1958.99 126.24 1954.3 127.627 1950.07 130.271C1945.84 132.782 1941.81 136.086 1937.97 140.183C1934.14 144.147 1930.44 148.575 1926.87 153.465C1923.3 158.355 1919.54 163.179 1915.57 167.937L1951.85 220.867C1954.36 224.436 1956.48 227.409 1958.2 229.788C1959.91 232.167 1961.57 234.083 1963.15 235.537C1964.74 236.859 1966.39 237.784 1968.11 238.312C1969.96 238.841 1972.2 239.105 1974.85 239.105V251H1894.36V239.105C1898.33 239.105 1901.5 238.577 1903.88 237.52C1906.26 236.462 1907.45 234.612 1907.45 231.969C1907.45 231.44 1906.65 229.854 1905.07 227.211C1903.48 224.568 1901.63 221.594 1899.52 218.29C1897.53 214.986 1895.48 211.814 1893.37 208.774C1891.26 205.603 1889.67 203.224 1888.61 201.638C1882.67 208.774 1877.91 215.118 1874.34 220.669C1870.9 226.088 1869.18 230.052 1869.18 232.563C1869.18 234.414 1870.11 236 1871.96 237.321C1873.94 238.511 1876.39 239.105 1879.29 239.105V251H1822.8V239.105C1828.35 239.105 1833.5 237.652 1838.26 234.744C1843.02 231.704 1848.44 226.682 1854.51 219.678L1878.9 187.166L1845 141.372C1842.49 137.936 1840.18 135.227 1838.06 133.244C1835.95 131.262 1833.9 129.742 1831.92 128.685C1829.93 127.627 1827.95 126.966 1825.97 126.702C1823.99 126.306 1821.8 126.107 1819.43 126.107V114.213H1899.91V126.107H1898.33C1895.68 126.107 1893.83 126.768 1892.78 128.09C1891.72 129.279 1891.19 130.799 1891.19 132.649Z" fill="black"/>
</svg>
